<svg width="19" height="19" viewBox="0 0 19 19" fill="none" xmlns="http://www.w3.org/2000/svg">
<path d="M15.6165 3.38353C13.9943 1.76134 11.7941 0.85 9.5 0.85C7.20588 0.85 5.00572 1.76134 3.38353 3.38353C1.76134 5.00572 0.85 7.20588 0.85 9.5C0.85 11.7941 1.76134 13.9943 3.38353 15.6165C5.00572 17.2387 7.20588 18.15 9.5 18.15C11.7941 18.15 13.9943 17.2387 15.6165 15.6165C17.2387 13.9943 18.15 11.7941 18.15 9.5C18.15 7.20588 17.2387 5.00572 15.6165 3.38353ZM9.5 16.7107C5.52421 16.7107 2.28928 13.4759 2.28928 9.5C2.28928 5.52414 5.52414 2.28928 9.5 2.28928C13.4759 2.28928 16.7107 5.52414 16.7107 9.5C16.7107 13.4759 13.4759 16.7107 9.5 16.7107Z" fill="#0072FF" stroke="#0072FF" stroke-width="0.3"/>
<path d="M8.21905 11.07L5.71147 8.56249L5.6054 8.45642L5.49934 8.56249L4.69377 9.36805L4.5877 9.47412L4.69377 9.58019L8.11299 12.9994L8.21905 13.1055L8.32512 12.9994L14.2885 7.0361L14.3945 6.93003L14.2885 6.82396L13.4829 6.0184L13.3768 5.91234L13.2707 6.0184L8.21905 11.07Z" fill="#0072FF" stroke="#0072FF" stroke-width="0.3"/>
</svg>
